<svg id="Layer_1" data-name="Layer 1" xmlns="http://www.w3.org/2000/svg" width="24" height="24" viewBox="0 0 24 24">
  <path d="M12,22c5.25,0,9.5-4.25,9.5-9.5S17.25,3,12,3,2.5,7.25,2.5,12.5s4.25,9.5,9.5,9.5Z" style="fill: #79deee; stroke: #104e58;"/>
  <path d="M17.84,11.14c-.77-1.74-3.02-2.23-4.45-.95l-.14,.12,.42,.67,.29-.12c1.11-.46,2.4-.18,3.21,.72l.66-.43h0Z" style="fill: #104e58;"/>
  <path d="M16.55,14H7.45c-.47,0-.79,.47-.62,.91,.68,1.74,2,4.09,5.17,4.09s4.49-2.35,5.17-4.09c.17-.44-.15-.91-.62-.91Z" style="fill: #13707e;"/>
  <path d="M12.01,16.3c-2.12,0-3.75,.87-2.66,1.68,.56,.42,1.56,.73,2.66,.72,.82-.01,1.9-.21,2.66-.72,1.06-.72-.53-1.68-2.66-1.68Z" style="fill: #aef0fa;"/>
  <path d="M16.38,13.5H7.62c-.88,0-1.55,.88-1.2,1.74,.36,.89,.9,1.95,1.78,2.79,.89,.86,2.12,1.47,3.8,1.47s2.91-.61,3.8-1.47c.88-.84,1.42-1.91,1.78-2.79,.35-.86-.32-1.74-1.2-1.74Zm-1.27,3.81c-.72,.69-1.7,1.19-3.11,1.19s-2.39-.5-3.11-1.19c-.73-.7-1.21-1.61-1.54-2.45-.06-.16,.05-.36,.27-.36h8.76c.22,0,.34,.21,.27,.36-.34,.83-.81,1.75-1.54,2.45Z" style="fill: #104e58;"/>
  <path d="M10.61,10.19c-1.42-1.27-3.67-.79-4.44,.95l.66,.43c.81-.89,2.1-1.18,3.21-.72l.29,.12,.42-.67-.14-.12Z" style="fill: #104e58;"/>
  <path d="M9,7c-.92-.04-2.5,.5-3,1.5" style="fill: none; stroke: #104e58; stroke-linecap: round;"/>
  <path d="M15,7c.92-.04,2.5,.5,3,1.5" style="fill: none; stroke: #104e58; stroke-linecap: round;"/>
</svg>
