<svg xmlns="http://www.w3.org/2000/svg" width="24" height="24" viewBox="0 0 24 24" id="support-creation-medium" data-supported-dps="24x24">
  <path fill="none" d="M0 0h24v24H0z"/>
  <path d="M7.45 15.41h-.32A32.33 32.33 0 003.69 14c-.16 0-.15-.34-.17-.5a1.11 1.11 0 01.17-.81.65.65 0 01.56-.27.87.87 0 01.32.06 2.44 2.44 0 01.7.4l.09.07.58.4.54.38 1.36.54a6.51 6.51 0 011.44 1.43c0 .19-1.57-.26-1.75-.25z" fill="#9983b1"/>
  <path d="M22.19 21.55a36.31 36.31 0 01-5.89-.61h-.1a32.17 32.17 0 01-4.36-.94c-1.28-.39-2.53-.89-3.74-1.37l-.55-.22c-1.14-.45-2.08-.83-2.93-1.2l-.32-.14a11.88 11.88 0 01-1.49-.7c-.66-.4-.87-.9-.59-1.51v-.05a1 1 0 011-.58h.34a36.64 36.64 0 014.72 1.51l2 .07 4.48.16a8.14 8.14 0 00-3.36-1.44c-.4-.1-.77-.23-.86-.5a1.22 1.22 0 01.39-1.28 1.61 1.61 0 01.94-.21 3.25 3.25 0 01.91.21c.23.06.47.34.65.39a7.57 7.57 0 001.57.26 16.14 16.14 0 012.33.33c2.49.69 3 1.95 3.28 2.71-.1-.32 0-.08.05-.2l.08.34.21-.06a.74.74 0 00.21 0h.65l.23.14c.2 0 .32-.13.37.06.85 3.13 0 4.56 0 4.63a.31.31 0 01-.24.17z" fill="#bba9d1"/>
  <path d="M8.07 5.54a2.35 2.35 0 00-3.33 0 2.38 2.38 0 000 3.37l3.64 3.63L12 8.91a2.39 2.39 0 00-1.69-4.07 2.35 2.35 0 00-1.68.7l-.27.27z" fill="#df704d" fill-rule="evenodd"/>
  <path d="M22.29 16.72a3.78 3.78 0 01.71 2.57A5.53 5.53 0 0121.91 22c-.19.21-7.16-.79-8.77-1.1s-10.65-4.42-11-4.62a1.34 1.34 0 01.53-1.87C3.59 14.09 7 16 8.38 16.1s4.84.34 6 .34-1.3-1-1.87-1.2-1.79-.5-2-1.16a.8.8 0 01.8-1.08 20.33 20.33 0 013.22.75 8.58 8.58 0 013.67.69 4.52 4.52 0 012.2 2.28c.16.37 1.72-.14 1.89 0z" fill="none" stroke="#493d57"/>
  <path d="M3.26 14.08c-.23-.92.22-1.36.77-1.47s2.13.84 2.89 1.47a25.39 25.39 0 003.72 2.17" fill="none" stroke="#493d57"/>
  <path d="M8.21 5.22a2.49 2.49 0 00-3.52 3.51l3.8 3.77 3.79-3.77a2.48 2.48 0 00-.67-4 2.42 2.42 0 00-1.09-.25 2.48 2.48 0 00-1.74.73l-.29.28z" fill="none" stroke="#77280c" stroke-linecap="round" stroke-linejoin="round"/>
</svg>
